<mxfile host="Electron" modified="2024-04-24T20:22:26.033Z" agent="Mozilla/5.0 (Windows NT 10.0; Win64; x64) AppleWebKit/537.36 (KHTML, like Gecko) draw.io/24.2.5 Chrome/120.0.6099.109 Electron/28.1.0 Safari/537.36" etag="2vk3cx5HXUlmtPafjKpl" version="24.2.5" type="device">
  <diagram name="Page-1" id="rR8u7kdodg4F9gFGzOuO">
    <mxGraphModel dx="2333" dy="1380" grid="1" gridSize="10" guides="1" tooltips="1" connect="1" arrows="1" fold="1" page="1" pageScale="1" pageWidth="850" pageHeight="1100" math="0" shadow="0">
      <root>
        <mxCell id="0" />
        <mxCell id="1" parent="0" />
        <mxCell id="5eIMXJIO_DqYceiy5pTM-1" value="Khách hàng" style="swimlane;whiteSpace=wrap;html=1;fontSize=21;startSize=40;" parent="1" vertex="1">
          <mxGeometry x="170" y="110" width="500" height="1210" as="geometry" />
        </mxCell>
        <mxCell id="5eIMXJIO_DqYceiy5pTM-3" value="" style="ellipse;html=1;shape=startState;fillColor=#000000;strokeColor=#ff0000;" parent="5eIMXJIO_DqYceiy5pTM-1" vertex="1">
          <mxGeometry x="50" y="90" width="70" height="70" as="geometry" />
        </mxCell>
        <mxCell id="5eIMXJIO_DqYceiy5pTM-4" value="" style="edgeStyle=orthogonalEdgeStyle;html=1;verticalAlign=bottom;endArrow=open;endSize=8;strokeColor=#ff0000;rounded=0;entryX=0;entryY=0.5;entryDx=0;entryDy=0;" parent="5eIMXJIO_DqYceiy5pTM-1" source="5eIMXJIO_DqYceiy5pTM-3" target="5eIMXJIO_DqYceiy5pTM-5" edge="1">
          <mxGeometry relative="1" as="geometry">
            <mxPoint x="105" y="220" as="targetPoint" />
          </mxGeometry>
        </mxCell>
        <mxCell id="5eIMXJIO_DqYceiy5pTM-7" style="edgeStyle=orthogonalEdgeStyle;rounded=0;orthogonalLoop=1;jettySize=auto;html=1;entryX=0.5;entryY=0;entryDx=0;entryDy=0;" parent="5eIMXJIO_DqYceiy5pTM-1" source="5eIMXJIO_DqYceiy5pTM-5" target="5eIMXJIO_DqYceiy5pTM-6" edge="1">
          <mxGeometry relative="1" as="geometry" />
        </mxCell>
        <mxCell id="5eIMXJIO_DqYceiy5pTM-5" value="Quét mã QR được đặt ở bàn" style="rounded=1;whiteSpace=wrap;html=1;fontSize=17;gradientColor=#e6e2ee;fillColor=#45A8FF;" parent="5eIMXJIO_DqYceiy5pTM-1" vertex="1">
          <mxGeometry x="170" y="100" width="240" height="50" as="geometry" />
        </mxCell>
        <mxCell id="5eIMXJIO_DqYceiy5pTM-6" value="Nhập số điện thoại" style="rounded=1;whiteSpace=wrap;html=1;fontSize=17;fillColor=#45A8FF;gradientColor=#E6E2EE;" parent="5eIMXJIO_DqYceiy5pTM-1" vertex="1">
          <mxGeometry x="170" y="230" width="240" height="50" as="geometry" />
        </mxCell>
        <mxCell id="I3-Z4HtoCXYyQXx7SdmW-4" style="edgeStyle=orthogonalEdgeStyle;rounded=0;orthogonalLoop=1;jettySize=auto;html=1;entryX=0.5;entryY=0;entryDx=0;entryDy=0;" parent="5eIMXJIO_DqYceiy5pTM-1" source="I3-Z4HtoCXYyQXx7SdmW-1" target="I3-Z4HtoCXYyQXx7SdmW-3" edge="1">
          <mxGeometry relative="1" as="geometry" />
        </mxCell>
        <mxCell id="I3-Z4HtoCXYyQXx7SdmW-1" value="Bấm vào menu" style="rounded=1;whiteSpace=wrap;html=1;fontSize=17;fillColor=#45A8FF;gradientColor=#E6E2EE;" parent="5eIMXJIO_DqYceiy5pTM-1" vertex="1">
          <mxGeometry x="170" y="370" width="240" height="50" as="geometry" />
        </mxCell>
        <mxCell id="I3-Z4HtoCXYyQXx7SdmW-6" style="edgeStyle=orthogonalEdgeStyle;rounded=0;orthogonalLoop=1;jettySize=auto;html=1;entryX=0.5;entryY=0;entryDx=0;entryDy=0;" parent="5eIMXJIO_DqYceiy5pTM-1" source="I3-Z4HtoCXYyQXx7SdmW-3" target="I3-Z4HtoCXYyQXx7SdmW-5" edge="1">
          <mxGeometry relative="1" as="geometry" />
        </mxCell>
        <mxCell id="I3-Z4HtoCXYyQXx7SdmW-3" value="Chọn món và số lượng" style="rounded=1;whiteSpace=wrap;html=1;fontSize=17;fillColor=#45A8FF;gradientColor=#E6E2EE;" parent="5eIMXJIO_DqYceiy5pTM-1" vertex="1">
          <mxGeometry x="170" y="480" width="240" height="50" as="geometry" />
        </mxCell>
        <mxCell id="I3-Z4HtoCXYyQXx7SdmW-5" value="Bấm hoàn thành đơn" style="rounded=1;whiteSpace=wrap;html=1;fontSize=17;fillColor=#45A8FF;gradientColor=#E6E2EE;" parent="5eIMXJIO_DqYceiy5pTM-1" vertex="1">
          <mxGeometry x="170" y="590" width="240" height="50" as="geometry" />
        </mxCell>
        <mxCell id="I3-Z4HtoCXYyQXx7SdmW-10" value="Thoát khỏi hệ thống" style="rounded=1;whiteSpace=wrap;html=1;fontSize=17;fillColor=#45A8FF;gradientColor=#E6E2EE;" parent="5eIMXJIO_DqYceiy5pTM-1" vertex="1">
          <mxGeometry x="170" y="970" width="240" height="50" as="geometry" />
        </mxCell>
        <mxCell id="PRyGALmUcoKaXCvqLSz1-14" style="edgeStyle=orthogonalEdgeStyle;rounded=0;orthogonalLoop=1;jettySize=auto;html=1;entryX=0.5;entryY=0;entryDx=0;entryDy=0;" parent="5eIMXJIO_DqYceiy5pTM-1" source="I3-Z4HtoCXYyQXx7SdmW-10" target="I3-Z4HtoCXYyQXx7SdmW-13" edge="1">
          <mxGeometry relative="1" as="geometry" />
        </mxCell>
        <mxCell id="I3-Z4HtoCXYyQXx7SdmW-13" value="" style="ellipse;html=1;shape=endState;fillColor=#000000;strokeColor=#ff0000;" parent="5eIMXJIO_DqYceiy5pTM-1" vertex="1">
          <mxGeometry x="260" y="1065" width="60" height="60" as="geometry" />
        </mxCell>
        <mxCell id="5eIMXJIO_DqYceiy5pTM-2" value="Hệ thống" style="swimlane;whiteSpace=wrap;html=1;fontSize=21;startSize=40;" parent="1" vertex="1">
          <mxGeometry x="670" y="110" width="600" height="1210" as="geometry" />
        </mxCell>
        <mxCell id="5eIMXJIO_DqYceiy5pTM-8" value="Hiển thị giao diện giao diện hệ thống&amp;nbsp;" style="rounded=1;whiteSpace=wrap;html=1;fontSize=17;fillColor=#45A8FF;gradientColor=#E6E2EE;" parent="5eIMXJIO_DqYceiy5pTM-2" vertex="1">
          <mxGeometry x="115" y="230" width="240" height="50" as="geometry" />
        </mxCell>
        <mxCell id="I3-Z4HtoCXYyQXx7SdmW-12" style="edgeStyle=orthogonalEdgeStyle;rounded=0;orthogonalLoop=1;jettySize=auto;html=1;entryX=0.5;entryY=0;entryDx=0;entryDy=0;exitX=1;exitY=0.5;exitDx=0;exitDy=0;" parent="5eIMXJIO_DqYceiy5pTM-2" source="I3-Z4HtoCXYyQXx7SdmW-7" target="I3-Z4HtoCXYyQXx7SdmW-9" edge="1">
          <mxGeometry relative="1" as="geometry" />
        </mxCell>
        <mxCell id="I3-Z4HtoCXYyQXx7SdmW-17" value="&lt;span style=&quot;font-size: 17px;&quot;&gt;YES&lt;/span&gt;" style="edgeLabel;html=1;align=center;verticalAlign=middle;resizable=0;points=[];fontStyle=1" parent="I3-Z4HtoCXYyQXx7SdmW-12" vertex="1" connectable="0">
          <mxGeometry x="-0.587" y="-4" relative="1" as="geometry">
            <mxPoint x="-1" as="offset" />
          </mxGeometry>
        </mxCell>
        <mxCell id="I3-Z4HtoCXYyQXx7SdmW-7" value="Món đã hết hoặc hệ thống gặp lỗi" style="rhombus;whiteSpace=wrap;html=1;fontSize=17;fillStyle=hatch;fillColor=#FF3341;gradientColor=#e4cdcd;gradientDirection=south;" parent="5eIMXJIO_DqYceiy5pTM-2" vertex="1">
          <mxGeometry x="104" y="780" width="313" height="80" as="geometry" />
        </mxCell>
        <mxCell id="I3-Z4HtoCXYyQXx7SdmW-9" value="Thông báo &quot; Hệ thống đặt món không thành công&quot;" style="rounded=1;whiteSpace=wrap;html=1;fontSize=17;fillColor=#45A8FF;gradientColor=#E6E2EE;" parent="5eIMXJIO_DqYceiy5pTM-2" vertex="1">
          <mxGeometry x="365.5" y="915" width="240" height="50" as="geometry" />
        </mxCell>
        <mxCell id="PRyGALmUcoKaXCvqLSz1-15" style="edgeStyle=orthogonalEdgeStyle;rounded=0;orthogonalLoop=1;jettySize=auto;html=1;entryX=0.5;entryY=0;entryDx=0;entryDy=0;" parent="5eIMXJIO_DqYceiy5pTM-2" source="PRyGALmUcoKaXCvqLSz1-12" target="I3-Z4HtoCXYyQXx7SdmW-7" edge="1">
          <mxGeometry relative="1" as="geometry" />
        </mxCell>
        <mxCell id="PRyGALmUcoKaXCvqLSz1-12" value="Thông báo đơn hàng thành công" style="rounded=1;whiteSpace=wrap;html=1;fontSize=17;fillColor=#45A8FF;gradientColor=#E6E2EE;" parent="5eIMXJIO_DqYceiy5pTM-2" vertex="1">
          <mxGeometry x="140.5" y="590" width="240" height="50" as="geometry" />
        </mxCell>
        <mxCell id="5eIMXJIO_DqYceiy5pTM-9" style="edgeStyle=orthogonalEdgeStyle;rounded=0;orthogonalLoop=1;jettySize=auto;html=1;entryX=0;entryY=0.5;entryDx=0;entryDy=0;" parent="1" source="5eIMXJIO_DqYceiy5pTM-6" target="5eIMXJIO_DqYceiy5pTM-8" edge="1">
          <mxGeometry relative="1" as="geometry" />
        </mxCell>
        <mxCell id="I3-Z4HtoCXYyQXx7SdmW-2" style="edgeStyle=orthogonalEdgeStyle;rounded=0;orthogonalLoop=1;jettySize=auto;html=1;entryX=1;entryY=0.5;entryDx=0;entryDy=0;exitX=0.5;exitY=1;exitDx=0;exitDy=0;" parent="1" source="5eIMXJIO_DqYceiy5pTM-8" target="I3-Z4HtoCXYyQXx7SdmW-1" edge="1">
          <mxGeometry relative="1" as="geometry" />
        </mxCell>
        <mxCell id="PRyGALmUcoKaXCvqLSz1-13" style="edgeStyle=orthogonalEdgeStyle;rounded=0;orthogonalLoop=1;jettySize=auto;html=1;entryX=0;entryY=0.5;entryDx=0;entryDy=0;" parent="1" source="I3-Z4HtoCXYyQXx7SdmW-5" target="PRyGALmUcoKaXCvqLSz1-12" edge="1">
          <mxGeometry relative="1" as="geometry" />
        </mxCell>
        <mxCell id="I3-Z4HtoCXYyQXx7SdmW-11" style="edgeStyle=orthogonalEdgeStyle;rounded=0;orthogonalLoop=1;jettySize=auto;html=1;entryX=0.5;entryY=0;entryDx=0;entryDy=0;" parent="1" source="I3-Z4HtoCXYyQXx7SdmW-7" target="I3-Z4HtoCXYyQXx7SdmW-10" edge="1">
          <mxGeometry relative="1" as="geometry">
            <mxPoint x="930.5" y="1115" as="targetPoint" />
          </mxGeometry>
        </mxCell>
        <mxCell id="I3-Z4HtoCXYyQXx7SdmW-18" value="&lt;span style=&quot;font-size: 17px;&quot;&gt;NO&lt;/span&gt;" style="edgeLabel;html=1;align=center;verticalAlign=middle;resizable=0;points=[];fontStyle=1" parent="I3-Z4HtoCXYyQXx7SdmW-11" vertex="1" connectable="0">
          <mxGeometry x="-0.4128" y="-1" relative="1" as="geometry">
            <mxPoint as="offset" />
          </mxGeometry>
        </mxCell>
        <mxCell id="I3-Z4HtoCXYyQXx7SdmW-15" style="edgeStyle=orthogonalEdgeStyle;rounded=0;orthogonalLoop=1;jettySize=auto;html=1;entryX=1;entryY=0.5;entryDx=0;entryDy=0;exitX=0.5;exitY=1;exitDx=0;exitDy=0;" parent="1" source="I3-Z4HtoCXYyQXx7SdmW-9" target="I3-Z4HtoCXYyQXx7SdmW-13" edge="1">
          <mxGeometry relative="1" as="geometry" />
        </mxCell>
      </root>
    </mxGraphModel>
  </diagram>
</mxfile>
